# This file uses centimeters as units for non-parametric coordinates.

mtllib espada.mtl
g default
v -0.229109 0.000359 10.237020
v 0.229109 -0.146029 10.237019
v -0.229109 0.000359 5.700885
v 0.229109 -0.146028 5.700885
v 0.229109 0.146746 10.237020
v 0.687328 0.000359 10.237020
v 0.229109 0.146746 5.700886
v 0.687328 0.000359 5.700885
v 0.229109 0.000359 12.603892
v 0.229109 -0.046822 5.700885
v 0.153730 0.000359 5.700885
v 0.229109 0.047540 5.700885
v 0.304489 0.000359 5.700885
v 0.229109 -0.046822 3.334012
v 0.170694 0.000360 3.334012
v 0.229109 0.047541 3.334012
v 0.287525 0.000360 3.334012
vt 1.000000 0.000000
vt 0.000000 0.000000
vt 1.000000 1.000000
vt 0.000000 1.000000
vt 0.000000 0.000000
vt 1.000000 0.000000
vt 0.000000 1.000000
vt 1.000000 1.000000
vt 0.000000 0.000000
vt 1.000000 0.000000
vt 0.000000 1.000000
vt 1.000000 1.000000
vt 0.000000 0.000000
vt 1.000000 0.000000
vt 0.000000 1.000000
vt 1.000000 1.000000
vt 0.000000 0.000000
vt 1.000000 0.000000
vt 0.000000 1.000000
vt 1.000000 1.000000
vt 0.000000 0.000000
vt 1.000000 0.000000
vt 0.000000 1.000000
vt 1.000000 1.000000
vt 0.500000 0.500000
vt 0.000000 0.000000
vt 1.000000 0.000000
vt 1.000000 1.000000
vt 0.000000 1.000000
vt 0.000000 0.000000
vt 1.000000 0.000000
vt 1.000000 1.000000
vt 0.000000 1.000000
vn -0.304318 -0.952571 -0.000000
vn -0.304318 -0.952571 -0.000000
vn -0.304318 -0.952571 -0.000000
vn -0.304318 -0.952571 -0.000000
vn 0.304318 0.952571 0.000000
vn 0.304318 0.952571 0.000000
vn 0.304318 0.952571 0.000000
vn 0.304318 0.952571 0.000000
vn 0.304318 -0.952571 -0.000000
vn 0.304318 -0.952571 -0.000000
vn 0.304318 -0.952571 -0.000000
vn 0.304318 -0.952571 -0.000000
vn 0.000000 0.000000 -1.000000
vn 0.000000 0.000000 -1.000000
vn 0.000000 0.000000 -1.000000
vn 0.000000 0.000000 -1.000000
vn -0.304318 0.952571 0.000000
vn -0.304318 0.952571 0.000000
vn -0.304318 0.952571 0.000000
vn -0.304318 0.952571 0.000000
vn -0.303791 -0.950922 0.058813
vn -0.303791 -0.950922 0.058813
vn -0.303791 -0.950922 0.058813
vn 0.303791 -0.950922 0.058813
vn 0.303791 -0.950922 0.058813
vn 0.303791 -0.950922 0.058813
vn 0.303791 0.950922 0.058813
vn 0.303791 0.950922 0.058813
vn 0.303791 0.950922 0.058813
vn -0.303791 0.950922 0.058813
vn -0.303791 0.950922 0.058813
vn -0.303791 0.950922 0.058813
vn 0.000000 0.000000 -1.000000
vn 0.000000 0.000000 -1.000000
vn 0.000000 0.000000 -1.000000
vn 0.000000 0.000000 -1.000000
vn 0.000000 0.000000 -1.000000
vn 0.000000 0.000000 -1.000000
vn 0.000000 0.000000 -1.000000
vn 0.000000 0.000000 -1.000000
vn 0.000000 0.000000 -1.000000
vn 0.000000 0.000000 -1.000000
vn 0.000000 0.000000 -1.000000
vn 0.000000 0.000000 -1.000000
vn 0.000000 0.000000 -1.000000
vn 0.000000 0.000000 -1.000000
vn 0.000000 0.000000 -1.000000
vn 0.000000 0.000000 -1.000000
vn -0.576350 -0.817200 -0.002065
vn -0.576350 -0.817200 -0.002065
vn -0.576350 -0.817200 -0.002065
vn -0.576350 -0.817200 -0.002065
vn -0.576350 0.817200 -0.002065
vn -0.576350 0.817200 -0.002065
vn -0.576350 0.817200 -0.002065
vn -0.576350 0.817200 -0.002065
vn 0.576350 0.817200 -0.002065
vn 0.576350 0.817200 -0.002065
vn 0.576350 0.817200 -0.002065
vn 0.576350 0.817200 -0.002065
vn 0.576350 -0.817200 -0.002065
vn 0.576350 -0.817201 -0.002065
vn 0.576350 -0.817201 -0.002065
vn 0.576350 -0.817200 -0.002065
s off
g Espada_GEO
usemtl initialShadingGroup
f 1/1/1 3/3/2 4/4/3 2/2/4
f 5/5/5 6/6/6 8/8/7 7/7/8
f 2/13/9 4/14/10 8/16/11 6/15/12
f 14/30/13 15/31/14 16/32/15 17/33/16
f 3/21/17 1/22/18 5/24/19 7/23/20
f 1/9/21 2/10/22 9/25/23
f 2/10/24 6/12/25 9/25/26
f 6/12/27 5/11/28 9/25/29
f 5/11/30 1/9/31 9/25/32
f 4/17/33 3/18/34 11/27/35 10/26/36
f 3/18/37 7/20/38 12/28/39 11/27/40
f 7/20/41 8/19/42 13/29/43 12/28/44
f 8/19/45 4/17/46 10/26/47 13/29/48
f 10/26/49 11/27/50 15/31/51 14/30/52
f 11/27/53 12/28/54 16/32/55 15/31/56
f 12/28/57 13/29/58 17/33/59 16/32/60
f 13/29/61 10/26/62 14/30/63 17/33/64
