# ProBuilder 5.1.1
# https://unity3d.com/unity/features/worldbuilding/probuilder
# 15/11/2023 13:36:53

mtllib ./10.mtl
o 10

g 10
v -10.90195 0 0.948806
v -10.99826 0 1.769374
v -12.08613 0 1.800743
v -12.03022 0 0.494873
v -9.262414 0 -0.1446505
v -8.629137 0 0.2883601
v -8.626243 0 -0.6339951
v -9.265156 0 -0.7256339
v -8.818573 0 -1.343536
v -11.4494 0 -1.706746
v -12.15199 0 -1.281138
v -12.08936 0 -2.827641
v -11.42431 0 -2.095294
v -8.616374 0 -2.902002
v -8.555451 0 -2.206986
v -10.90195 2.03633 0.948806
v -10.99826 2.03633 1.769374
v -12.08613 2.03633 1.800743
v -12.03022 2.03633 0.494873
v -9.262414 1.505808 -0.1446505
v -8.629137 1.505808 0.2883601
v -9.265156 1.336741 -0.7256339
v -8.818573 1.336741 -1.343536
v -8.626243 1.336741 -0.6339951
v -11.4494 1.336741 -1.706746
v -12.15199 1.336741 -1.281138
v -12.08936 0.8669793 -2.827641
v -8.616374 0.8669793 -2.902002
v -8.555451 0.8669793 -2.206986
v -11.42431 0.8669793 -2.095294
v -12.06197 0.86698 -2.8056
v -11.42659 0.8669793 -2.060069
v -11.44913 1.336741 -1.710839
v -12.13386 1.33674 -1.30981
v -8.626401 1.336741 -0.5836096
v -9.244036 1.33674 -0.7217481
v -8.642297 1.505809 0.2854068
v -10.92021 2.036329 1.088464
v -12.01485 2.036329 0.504504

vt -2.285578 3.364056
vt -2.381884 4.184624
vt -3.469758 4.215993
vt -3.413845 2.910123
vt -0.64604 2.2706
vt -0.01276302 2.70361
vt -0.009868622 1.781255
vt -0.6487818 1.689616
vt -0.202199 1.071714
vt -2.833023 0.7085038
vt -3.535612 1.134112
vt -3.47299 -0.4123914
vt -2.80794 0.3199556
vt 0 -0.4867516
vt 0.06092262 0.2082644
vt -3.607542 0
vt -4.433742 0
vt -3.607542 2.03633
vt -4.433742 2.03633
vt -2.501509 0
vt -3.589835 0
vt -2.501509 2.03633
vt -3.589835 2.03633
vt 4.360561 0
vt 3.053495 0
vt 4.360561 2.03633
vt 3.053495 2.03633
vt 3.981356 0
vt 1.140628 0
vt 3.981356 2.03633
vt 1.140628 1.505808
vt -0.7666786 0
vt -3.133507 0
vt -0.7666786 1.505808
vt -3.133507 2.03633
vt 2.267526 0
vt 1.686536 0
vt 2.267526 1.505808
vt 1.686536 1.336741
vt -0.9814873 0
vt -1.716633 0
vt -0.9814873 1.336741
vt -1.716633 1.336741
vt 2.709507 0
vt 0.05372888 0
vt 2.709507 1.336741
vt 0.05372888 1.336741
vt -0.317823 0
vt -3.257615 0
vt -0.317823 1.336741
vt -3.257615 1.336741
vt 1.276232 0
vt -0.2715382 0
vt 1.276232 1.336741
vt -0.2715382 0.8669793
vt 3.463367 0
vt -0.01041944 0
vt 3.463367 0.8669793
vt -0.01041944 0.8669793
vt 0.4848922 0
vt -0.2127887 0
vt 0.4848922 0.8669793
vt -0.2127887 0.8669793
vt 0.05277445 0
vt -2.818262 0
vt 0.05277445 0.8669793
vt -2.818262 0.8669793
vt 3.445599 -0.3903501
vt 3.47299 -0.4123917
vt -0.06092256 0.2082641
vt 2.80794 0.3199553
vt 2.810214 0.3551807
vt -0.5354798 0.8669791
vt -0.5001811 0.8669791
vt -0.5001811 -1.70896E-07
vt -0.8895381 -1.70896E-07
vt -0.8895381 1.336741
vt -0.8854371 1.336741
vt 3.619362 1.372583
vt 3.637425 1.399319
vt 3.534657 -0.21425
vt 3.507367 -0.1925822
vt 2.874334 0.5324467
vt 2.937173 1.010262
vt -1.781277 1.66301E-10
vt -2.703637 1.663032E-10
vt -2.703637 1.505808
vt -1.831663 1.336741
vt -1.781277 1.336741
vt 0.6276616 1.693502
vt 0.6487817 1.689616
vt 3.535612 1.134112
vt 3.517482 1.10544
vt 2.832759 0.7044112
vt 2.833023 0.7085037
vt 0.2021989 1.071714
vt 0.009868567 1.781255
vt 0.01002688 1.83164
vt 0.7901126 2.527765
vt 0.776318 1.924065
vt 0.755299 1.928306
vt 0.1406209 2.076244
vt 0.1598672 2.963897
vt 0.172964 2.960735
vt 2.303838 3.503714
vt 2.285578 3.364057
vt 2.381883 4.184624
vt 3.469758 4.215993
vt 3.413845 2.910124
vt 3.398474 2.919755
vt 3.646857 3.217524
vt 3.662081 3.20767
vt 0.847556 2.552631
vt 0.2333657 2.990298
vt 0.2203316 2.993616
vt 2.544597 3.686257
vt 2.562683 3.82068

vn 0 -1 0
vn 0.9931831 0 0.1165649
vn 0.02882334 0 0.9995845
vn -0.9990847 0 -0.04277746
vn -0.2251266 0 -0.9743295
vn 0.2790426 0 0.9602787
vn -0.9999889 0 0.004719211
vn 0.9651704 0 -0.2616222
vn 0.1367624 0 -0.9906039
vn -0.1889605 0 0.9819847
vn -0.9991812 0 -0.04045953
vn -0.02140608 0 -0.9997709
vn 0.9961802 0 -0.08732161
vn 0.03890276 0 0.999243
vn 1.998839E-07 1 -1.024707E-05
vn 0.9979231 -1.484596E-07 0.06441715
vn -0.08120632 0.8053307 -0.390956
vn -0.4386808 0.8547558 -0.2774016
vn -0.1059395 0.8935066 -0.2796412
vn 0.2719554 0.9206622 -0.2760693
vn -0.05647317 0.7171547 -0.5022708
vn -0.4300554 0.5252426 -0.7342838
vn 0.9999951 7.388415E-08 0.00314
vn 0.08115765 0.9636374 -0.2483682
vn 0.05139119 0.9588376 -0.2792661
vn 0.05686978 0.9585848 -0.2790176
vn 0.07826144 0.9709737 -0.2186273
vn 0.04270258 0.9808465 -0.1900435
vn 0.08621798 0.9772944 -0.1885565
vn 0.08353033 0.9724924 -0.1681787
vn 0.13542 0.9669455 -0.2160504
vn 0.1363462 0.9593492 -0.2443366
vn 0.1253633 0.9337668 -0.3197245
vn 0.09228009 0.9069633 -0.4109769
vn 0.09147438 0.9545164 -0.2319837

usemtl Lit
f 13/13/1 14/14/1 15/15/1
f 12/12/1 14/14/1 13/13/1
f 12/12/1 13/13/1 10/10/1
f 11/11/1 12/12/1 10/10/1
f 11/11/1 10/10/1 8/8/1
f 10/10/1 9/9/1 8/8/1
f 8/8/1 9/9/1 7/7/1
f 8/8/1 7/7/1 5/5/1
f 5/5/1 7/7/1 6/6/1
f 1/1/1 5/5/1 6/6/1
f 4/4/1 5/5/1 1/1/1
f 4/4/1 1/1/1 3/3/1
f 1/1/1 2/2/1 3/3/1
f 7/85/23 24/89/23 35/88/23
f 7/85/23 35/88/23 6/86/23
f 21/87/23 6/86/23 35/88/23
f 13/75/16 30/74/16 32/73/16
f 13/75/16 32/73/16 10/76/16
f 10/76/16 32/73/16 33/78/16
f 25/77/16 10/76/16 33/78/16
f 32/72/15 30/71/15 31/68/15
f 31/68/15 28/14/15 27/69/15
f 30/71/15 28/14/15 31/68/15
f 29/70/15 28/14/15 30/71/15
f 26/80/18 34/79/17 27/81/19
f 31/82/20 27/81/19 34/79/17
f 34/79/17 32/83/21 31/82/20
f 34/79/17 33/84/22 32/83/21
f 34/93/15 25/95/15 33/94/15
f 26/92/15 25/95/15 34/93/15
f 26/92/15 22/91/15 25/95/15
f 22/91/15 23/96/15 25/95/15
f 36/90/15 23/96/15 22/91/15
f 24/97/15 23/96/15 36/90/15
f 35/98/15 24/97/15 36/90/15
f 20/99/24 36/101/26 22/100/25
f 35/102/27 36/101/26 20/99/24
f 37/104/29 35/102/27 20/99/24
f 21/103/28 35/102/27 37/104/29
f 39/110/15 19/109/15 18/108/15
f 18/108/15 38/105/15 39/110/15
f 18/108/15 17/107/15 38/105/15
f 16/106/15 38/105/15 17/107/15
f 38/117/15 16/116/35 39/111/30
f 39/111/30 20/113/32 19/112/31
f 16/116/35 20/113/32 39/111/30
f 37/114/33 20/113/32 16/116/35
f 21/115/34 37/114/33 16/116/35
f 17/19/2 2/17/2 1/16/2
f 1/16/2 16/18/2 17/19/2
f 18/23/3 3/21/3 2/20/3
f 2/20/3 17/22/3 18/23/3
f 19/27/4 4/25/4 3/24/4
f 3/24/4 18/26/4 19/27/4
f 20/31/5 5/29/5 4/28/5
f 4/28/5 19/30/5 20/31/5
f 16/35/6 1/33/6 6/32/6
f 6/32/6 21/34/6 16/35/6
f 22/39/7 8/37/7 5/36/7
f 5/36/7 20/38/7 22/39/7
f 24/43/8 7/41/8 9/40/8
f 9/40/8 23/42/8 24/43/8
f 23/47/9 9/45/9 10/44/9
f 10/44/9 25/46/9 23/47/9
f 26/51/10 11/49/10 8/48/10
f 8/48/10 22/50/10 26/51/10
f 27/55/11 12/53/11 11/52/11
f 11/52/11 26/54/11 27/55/11
f 28/59/12 14/57/12 12/56/12
f 12/56/12 27/58/12 28/59/12
f 29/63/13 15/61/13 14/60/13
f 14/60/13 28/62/13 29/63/13
f 30/67/14 13/65/14 15/64/14
f 15/64/14 29/66/14 30/67/14

