# ProBuilder 5.1.1
# https://unity3d.com/unity/features/worldbuilding/probuilder
# 15/11/2023 13:37:24

mtllib ./12.mtl
o 12

g 12
v -4.726469 -5.143615 6.988983
v -6.392884 -5.143615 6.911471
v -7.089554 -5.143615 5.899559
v -7.025815 -5.143614 4.845943
v -5.755812 -5.143614 4.371215
v -4.111793 -5.143614 4.39502
v -3.3505 -5.143614 5.178488
v -3.370745 -5.143615 6.35268
v -7.025816 0.7500005 4.845945
v -5.755812 0.750001 4.371218
v -7.089555 0.7499995 5.899561
v -6.392885 0.7499995 6.911473
v -4.72647 0.75 6.988986
v -4.111794 0.7500005 4.395022
v -3.350501 0.7500005 5.178491
v -3.370745 0.75 6.352682

vt 0.01785374 -0.001254559
vt -1.648561 -0.07876682
vt -2.345232 -1.090679
vt -2.281493 -2.144295
vt -1.011489 -2.619022
vt 0.6325297 -2.595218
vt 1.393822 -1.811749
vt 1.373578 -0.637558
vt 2.281493 -2.144295
vt 1.011489 -2.619022
vt 2.345232 -1.090679
vt 1.648561 -0.07876682
vt -0.01785374 -0.001254559
vt -0.6325297 -2.595218
vt -1.393822 -1.811749
vt -1.373578 -0.637558
vt 1.386271 -5.074363E-07
vt 0.03044074 -3.059914E-08
vt 1.38627 -5.893615
vt 0.03043946 -5.893615
vt -0.9470723 -3.41257E-07
vt -2.002614 6.124173E-07
vt -0.9470745 -5.893615
vt -2.002616 -5.893614
vt -0.9997286 -1.031364E-07
vt -2.228271 -1.031364E-07
vt -0.9997302 -5.893615
vt -2.228272 -5.893615
vt 0.01777616 -8.100222E-10
vt -1.650441 -4.776472E-07
vt 0.01777657 -5.893615
vt -1.65044 -5.893615
vt 1.0493 -1.027222E-07
vt -0.5948905 -5.795593E-07
vt 1.0493 -5.893615
vt -0.594891 -5.893615
vt 1.420449 -2.602917E-07
vt 0.3280252 -2.602917E-07
vt 1.42045 -5.893615
vt 0.3280265 -5.893615
vt 1.835508 3.756523E-07
vt 0.6611418 -1.011848E-07
vt 1.83551 -5.893614
vt 0.661144 -5.893615
vt 1.514317 2.022185E-09
vt 0.01669516 2.022194E-09
vt 1.514318 -5.893615
vt 0.01669659 -5.893615

vn -4.431563E-09 -1 -3.236493E-07
vn -3.797683E-08 1 9.02847E-07
vn -0.3501379 3.506004E-07 -0.9366981
vn -0.9981752 -5.755323E-08 -0.06038494
vn -0.8236693 -2.852888E-07 0.5670706
vn -0.04646414 -3.893541E-07 0.99892
vn 0.01447775 4.05666E-07 -0.9998952
vn 0.7171838 3.471941E-07 -0.696884
vn 0.9998514 7.427045E-08 0.01723854
vn 0.424876 -3.135218E-07 0.9052516

usemtl Lit
f 7/7/1 8/8/1 1/1/1
f 6/6/1 7/7/1 1/1/1
f 5/5/1 6/6/1 1/1/1
f 2/2/1 5/5/1 1/1/1
f 5/5/1 2/2/1 3/3/1
f 4/4/1 5/5/1 3/3/1
f 11/11/2 10/10/2 9/9/2
f 11/11/2 12/12/2 10/10/2
f 13/13/2 10/10/2 12/12/2
f 13/13/2 14/14/2 10/10/2
f 13/13/2 15/15/2 14/14/2
f 13/13/2 16/16/2 15/15/2
f 10/18/3 5/20/3 4/19/3
f 4/19/3 9/17/3 10/18/3
f 9/22/4 4/24/4 3/23/4
f 3/23/4 11/21/4 9/22/4
f 11/26/5 3/28/5 2/27/5
f 2/27/5 12/25/5 11/26/5
f 12/30/6 2/32/6 1/31/6
f 1/31/6 13/29/6 12/30/6
f 14/34/7 6/36/7 5/35/7
f 5/35/7 10/33/7 14/34/7
f 15/38/8 7/40/8 6/39/8
f 6/39/8 14/37/8 15/38/8
f 16/42/9 8/44/9 7/43/9
f 7/43/9 15/41/9 16/42/9
f 13/46/10 1/48/10 8/47/10
f 8/47/10 16/45/10 13/46/10

