# ProBuilder 5.1.1
# https://unity3d.com/unity/features/worldbuilding/probuilder
# 15/11/2023 13:29:54

mtllib ./3.mtl
o 3

g 3
v 6.454198 0 -5.407823
v 9.578217 0 -5.357071
v 6.454198 0.397423 -5.407823
v 9.578217 0.397423 -5.357071
v 9.583887 0 -4.713114
v 9.583887 0.397423 -4.713114
v 7.945044 0 -7.207714
v 7.999249 0 -6.689068
v 7.945044 0.397423 -7.207714
v 7.999249 0.397423 -6.689068
v 6.462491 0 -6.709929
v 6.462491 0.397423 -6.709929
v 6.520393 0 -7.24271
v 5.906496 0.397423 -7.24271
v 7.586843 0 -9.653638
v 7.58621 0 -8.554296
v 7.586843 0.397423 -9.653638
v 7.58621 0.397423 -8.554296
v 6.471165 0 -8.558742
v 5.857268 0.397423 -8.558742
v 5.858945 0 -9.723258
v 5.858945 0.397423 -9.723258
v 5.826087 0 -4.771686
v 5.826087 0.397423 -4.771686
v 5.876446 0.3974228 -7.244977
v 5.827485 0.3974218 -6.741249
v 5.875221 0.3974228 -8.547419

vt 1.063529 0
vt -2.060902 0
vt 1.063529 0.397423
vt -2.060902 0.397423
vt -4.313935 0
vt -4.957918 0
vt -4.313935 0.397423
vt -4.957918 0.397423
vt -2.469908 0
vt -2.991378 0
vt -2.469908 0.397423
vt -2.991378 0.397423
vt 0.4526049 0
vt -1.084295 0
vt 0.4526049 0.397423
vt -1.084295 0.397423
vt 1.006923 0.09235411
vt -0.4181576 0.09235411
vt 1.620635 0.4900629
vt -0.4181576 0.4894914
vt 0 0
vt -1.099342 0
vt 0 0.397423
vt -1.099342 0.397423
vt 0.00374873 0
vt -1.111305 0
vt 0.00374873 0.397423
vt -1.725197 0.397423
vt 1.729301 0
vt 1.729301 0.397423
vt 4.893529 0
vt -0.05815278 0
vt 4.893529 0.397423
vt -0.05815278 0.397423
vt -2.95081 0
vt -4.252943 0
vt -2.95081 0.397423
vt -4.252943 0.397423
vt 2.073798 0
vt -1.684458 0
vt 2.073798 0.397423
vt -1.684458 0.397423
vt 1.710397 2.40866
vt 1.680347 2.410928
vt -0.3582006 2.445924
vt -0.4124051 2.964569
vt 1.124353 2.943709
vt 1.759359 2.912389
vt -1.711623 1.10622
vt -1.727899 -0.06962015
vt -0.0006337048 1.099341
vt -1.729575 1.094896
vt 1.729575 1.094896
vt 1.132646 4.245815
vt -1.991373 4.296567
vt -1.997044 4.940524
vt 1.760756 4.881952
vt 1.727899 -0.06962014
vt 1.711623 1.10622

vn 0.0162435 0 -0.9998681
vn 0.9999613 0 -0.008805444
vn 0.994583 0 -0.1039454
vn -0.01357291 0 0.9999079
vn 0.02453957 0.03790613 -0.99898
vn 0.02085209 0.01895307 -0.9994164
vn 0.01716461 0 -0.9998527
vn 0.9999999 0 0.0005764511
vn -0.003986424 0 0.9999921
vn -0.003278689 -0.001985668 0.9999905
vn -0.002570953 -0.003971335 0.9999888
vn 0.04025913 0 -0.9991893
vn -0.999978 0 -0.006635705
vn 0.9999797 0 0.006368535
vn -0.01558484 0 0.9998785
vn -6.049073E-06 1 1.30527E-06
vn -9.951387E-06 -1 -1.432706E-08
vn -4.975694E-06 0 -7.163528E-09
vn -3.317129E-06 0.3333333 -4.775685E-09
vn 3.730198E-07 0.4285714 -2.187102E-07

usemtl Lit
f 26/48/16 14/44/16 25/43/16
f 26/48/16 9/45/16 14/44/16
f 12/47/16 9/45/16 26/48/16
f 9/45/16 12/47/16 10/46/16
f 27/49/17 20/52/19 22/50/18
f 20/52/19 17/21/16 22/50/18
f 18/51/16 17/21/16 20/52/19
f 6/56/16 4/55/16 3/54/16
f 12/47/18 26/48/17 25/43/20
f 3/54/16 12/47/18 25/43/20
f 25/43/20 14/44/16 20/53/18
f 25/43/20 20/53/18 27/59/18
f 25/43/20 27/59/18 22/58/16
f 25/43/20 22/58/16 24/57/16
f 3/54/16 25/43/20 24/57/16
f 6/56/16 3/54/16 24/57/16
f 4/4/1 2/2/1 1/1/1
f 1/1/1 3/3/1 4/4/1
f 6/8/2 5/6/2 2/5/2
f 2/5/2 4/7/2 6/8/2
f 10/12/3 8/10/3 7/9/3
f 7/9/3 9/11/3 10/12/3
f 12/16/4 11/14/4 8/13/4
f 8/13/4 10/15/4 12/16/4
f 9/20/7 7/18/6 13/17/5
f 13/17/5 14/19/6 9/20/7
f 18/24/8 16/22/8 15/21/8
f 15/21/8 17/23/8 18/24/8
f 20/28/11 19/26/10 16/25/9
f 16/25/9 18/27/10 20/28/11
f 17/23/12 15/21/12 21/29/12
f 21/29/12 22/30/12 17/23/12
f 22/34/13 21/32/13 23/31/13
f 23/31/13 24/33/13 22/34/13
f 3/38/14 1/36/14 11/35/14
f 11/35/14 12/37/14 3/38/14
f 24/42/15 23/40/15 5/39/15
f 5/39/15 6/41/15 24/42/15

