# ProBuilder 5.1.1
# https://unity3d.com/unity/features/worldbuilding/probuilder
# 15/11/2023 13:30:02

mtllib ./4_suelo.mtl
o 4 suelo

g 4 suelo
v 11.27235 0 -15.55045
v 11.32586 0 -11.36618
v 11.27235 0.7524901 -15.55045
v 11.32586 0.7524901 -11.36618
v 6.302073 0 -15.62896
v 11.94669 0 -15.5913
v 6.302073 0.7524901 -15.62896
v 11.94669 0.7524901 -15.5913
v 6.357573 0 -11.40902
v 6.291152 0 -16.24842
v 6.357573 0.7524901 -11.40902
v 6.291152 0.7524901 -16.24842
v 8.707067 0.5450273 -11.38876
v 6.368494 0.5450273 -11.40902
v 5.908273 0 -11.40902
v 8.720388 0 -11.38865
v 5.841853 0 -16.24842
v 11.94669 0 -16.21077
v 12.0002 0 -11.36618
v 9.8395 0 -11.37895
v 11.31405 0.5450273 -11.36618
v 9.79555 0.5269089 -11.37933
v 11.94669 0.7524901 -16.21077
v 12.0002 0.7524901 -11.36618
v 5.841853 0.7524901 -16.24842
v 5.908273 0.7524901 -11.40902

vt -4.184456 0
vt 0.0001509579 0
vt -4.184456 0.7524901
vt 0.0001509579 0.7524901
vt -5.040305 0
vt 0.6044415 0
vt -5.040305 0.7524901
vt 0.6044415 0.7524901
vt 0.1108512 0
vt 4.950715 0
vt 0.1108512 0.7524901
vt 4.950715 0.7524901
vt 2.607084 0.5450127
vt 4.945744 0.5450127
vt 5.405948 -2.914887E-05
vt 2.593761 2.33892E-11
vt 2.593664 -0.02246414
vt 5.405779 -0.04283428
vt 5.4722 -4.882242
vt -0.6326418 -4.844585
vt -0.6861506 0
vt 1.474552 -0.01277133
vt 1.474606 -5.736953E-06
vt 0 0.545024
vt 1.518558 0.5268998
vt 0.6861506 0
vt 0.6326418 -4.844585
vt 0.01180553 0
vt -0.04170322 -4.184265
vt -3.841476 0
vt -3.841476 0.7524901
vt -2.897673 0
vt -2.897673 0.7524901
vt 0.04170322 -4.184265
vt -0.01180553 0
vt 0.6861506 0.7524901
vt 0.01180553 0.7524901
vt -5.4722 -4.882242
vt 0.6326418 -4.225118
vt -5.011979 -4.262774
vt -7.182463 0
vt -7.182463 0.7524901
vt -6.410748 0
vt -6.410748 0.7524901
vt 5.011979 -4.262774
vt -0.6326418 -4.225118
vt 4.844585 0.7524901
vt 4.844585 0
vt 4.225118 0.7524901
vt 4.225118 0
vt -5.405779 -0.04283428
vt -5.022901 -4.882242
vt -4.95648 -0.04283428
vt -5.405779 0
vt -5.405779 0.7524901
vt -4.95648 0
vt -4.95648 0.7524901
vt 4.95648 -0.04283428
vt 5.022901 -4.882242
vt 5.4722 0.7524901
vt 5.4722 0
vt 5.022901 0.7524901
vt 5.022901 0

vn -0.9999182 0 0.01278704
vn -0.00667112 0 0.9999778
vn 0.9999058 0 -0.01372364
vn 0.007952061 -0.003673828 -0.9999548
vn 0.008660604 -0.00731301 -0.9999357
vn 0.007243517 -3.464651E-05 -0.9999738
vn 0 1 0
vn 0.007285695 0.00372031 -0.9999587
vn 0.005910465 0.007440855 -0.9999549
vn 0.007744076 0.002482553 -0.9999599
vn 0.008660838 7.038836E-06 -0.9999625
vn 0 -1 0
vn -0.6996378 0 -0.7144976
vn 0 0 1
vn -0.8027161 0 0.5963614
vn 1 0 0
vn 0 0 -1

usemtl Lit
f 15/18/7 16/17/7 17/19/7
f 17/19/7 16/17/7 18/20/7
f 20/22/7 18/20/7 16/17/7
f 19/21/7 18/20/7 20/22/7
f 21/24/10 22/25/11 13/13/11
f 21/24/10 20/23/8 22/25/11
f 21/24/10 19/21/9 20/23/8
f 3/3/1 1/1/1 2/2/1
f 2/2/1 4/4/1 3/3/1
f 7/7/2 5/5/2 6/6/2
f 6/6/2 8/8/2 7/7/2
f 11/11/3 9/9/3 10/10/3
f 10/10/3 12/12/3 11/11/3
f 15/15/4 14/14/5 13/13/4
f 13/13/4 16/16/6 15/15/4
f 1/29/12 18/27/12 19/26/12
f 19/26/12 2/28/12 1/29/12
f 3/33/13 23/31/13 18/30/13
f 18/30/13 1/32/13 3/33/13
f 4/35/7 24/21/7 23/20/7
f 23/20/7 3/34/7 4/35/7
f 2/28/14 19/26/14 24/36/14
f 24/36/14 4/37/14 2/28/14
f 5/40/12 17/38/12 18/27/12
f 18/27/12 6/39/12 5/40/12
f 7/44/15 25/42/15 17/41/15
f 17/41/15 5/43/15 7/44/15
f 8/46/7 23/20/7 25/19/7
f 25/19/7 7/45/7 8/46/7
f 6/50/16 18/48/16 23/47/16
f 23/47/16 8/49/16 6/50/16
f 9/53/12 15/51/12 17/38/12
f 17/38/12 10/52/12 9/53/12
f 11/57/14 26/55/14 15/54/14
f 15/54/14 9/56/14 11/57/14
f 12/59/7 25/19/7 26/18/7
f 26/18/7 11/58/7 12/59/7
f 10/63/17 17/61/17 25/60/17
f 25/60/17 12/62/17 10/63/17

