# ProBuilder 5.1.1
# https://unity3d.com/unity/features/worldbuilding/probuilder
# 15/11/2023 13:31:59

mtllib ./7_suelo.mtl
o 7 suelo

g 7 suelo
v -1.584782 -0.06 3.050434
v -1.287309 -0.06 3.052257
v -0.721765 -0.06 4.404202
v -1.560924 -0.06 4.501267
v -0.9898353 -0.06 3.05408
v 0.1173935 -0.06 4.307136
v 1.224622 -0.06 5.560191
v -0.1562214 -0.06 5.756146
v -1.537066 -0.06 5.952101
v -0.3948889 -0.06 3.057725
v -0.1301055 -0.06 3.074379
v -0.006356239 -0.06 3.690757
v -0.6923618 -0.06 3.055902
v 0.1346779 -0.06 3.091033
v 0.6796501 -0.06 4.325612
v 0.3994617 -0.06 3.107686
v 1.161751 -0.06 3.724315
v 0.6642451 -0.06 3.12434
v 1.643851 -0.06 3.123019
v 2.623456 -0.06 3.121698
v 1.924039 -0.06 4.340945
v 3.248241 -0.06 4.448521
v 2.89342 -0.06 5.776665
v 3.603062 -0.06 3.120377
v 4.582667 -0.06 3.119056
v 4.572442 -0.06 4.556097
v 4.562217 -0.06 5.993139
v 3.43146 -0.06 7.31964
v 2.310928 -0.06 7.2091
v 4.551992 -0.06 7.430181
v 4.541767 -0.06 8.867222
v 3.9695 -0.06 8.862616
v 3.397233 -0.06 8.858009
v 0.3816748 -0.06 8.851282
v 0.8031485 -0.06 7.205737
v 1.814057 -0.06 8.02957
v 1.317187 -0.06 8.850039
v 2.824966 -0.06 8.853403
v 2.252699 -0.06 8.848797
v -0.5538373 -0.06 8.852525
v -0.3550296 -0.06 7.304336
v -1.489349 -0.06 8.853767
v -1.513207 -0.06 7.402934
v 3.397233 0.4349307 8.858009
v 2.824966 0.4349307 8.853403
v 3.397233 0.9298614 8.858009
v 2.824966 0.9298614 8.853403
v 2.252699 0.9298614 8.848797
v 2.252699 0.4349307 8.848797
v 4.541767 0.4349307 8.867222
v 3.9695 0.4349307 8.862616
v 4.541767 0.9298614 8.867222
v 3.9695 0.9298614 8.862616
v 4.541767 1.424792 8.867222
v 3.9695 1.424792 8.862616
v 4.541767 1.919723 9.176579
v 3.9695 1.919723 9.171973
v 3.397233 1.919723 9.167367
v 3.397233 1.424792 8.858009
v 2.824966 1.424792 8.853403
v 2.824966 1.919723 9.162761
v 2.252699 1.919723 9.158154
v 2.252699 1.424792 8.848797
v -1.537066 1.061266 5.736917
v -1.560924 1.061266 4.501267
v -1.560924 0.5006329 4.501267
v -1.537066 0.5006329 5.736917
v -1.584782 1.061266 3.050434
v -1.584782 0.5006329 3.050434
v -1.489349 1.061266 8.853767
v -1.513207 1.061266 6.556458
v -1.513207 0.5006329 6.556458
v -1.489349 0.5006329 8.853767
v -1.881606 2.182532 8.853767
v -1.905464 2.182532 6.556458
v -1.513207 1.621899 6.556458
v -1.489349 1.621899 8.853767
v -1.537066 1.621899 5.736917
v -1.560924 1.621899 4.501267
v -1.929322 2.182532 5.736917
v -1.95318 2.182532 4.501267
v -1.977038 2.182532 3.050434
v -1.584782 1.621899 3.050434
v -0.6923618 0.5583076 3.055902
v -0.3948889 0.5583076 3.057725
v -0.9898357 0.5583076 3.054079
v -0.9898357 1.176615 3.054079
v -0.6923623 1.176615 3.055902
v -0.3948889 1.176615 3.057725
v -1.287309 0.5583076 3.052257
v -1.287309 1.176615 3.052257
v -1.584782 0.5583076 3.050434
v -1.584782 1.176615 3.050434
v -1.287309 1.794923 3.052257
v -0.9898357 1.794923 3.054079
v -1.584782 1.794923 3.050434
v -1.584782 2.41323 2.734797
v -1.287309 2.41323 2.73662
v -0.9898353 2.41323 2.738443
v -0.3948889 2.41323 2.742088
v -0.3948889 1.794923 3.057725
v -0.6923623 1.794923 3.055902
v -0.6923618 2.41323 2.740266
v 3.603062 0.2924169 3.120377
v 4.582667 0.2924169 3.119056
v 2.623456 0.2924169 3.121698
v 2.623456 0.6448338 3.121698
v 3.603062 0.6448338 3.120377
v 4.582667 0.6448338 3.119056
v 1.643851 0.2924169 3.123019
v 0.6642451 0.2924169 3.12434
v 0.6642451 0.6448338 3.12434
v 1.643851 0.6448338 3.123019
v 1.643851 1.42492 3.123019
v 2.623456 1.42492 3.121698
v 0.6642451 1.42492 3.12434
v 0.6642451 1.777337 2.764643
v 1.643851 1.777337 2.763322
v 2.623456 1.777337 2.762
v 3.603062 1.42492 3.120377
v 4.582667 1.42492 3.119056
v 3.603062 1.777337 2.760679
v 4.582667 1.777337 2.759358
v 4.551992 0.3585173 7.430181
v 4.541767 0.3585173 8.867222
v 4.562217 0.3585173 5.993139
v 4.562217 0.7770346 5.993139
v 4.551992 0.7770346 7.430181
v 4.541767 0.7770346 8.867222
v 4.582667 0.3585173 3.119056
v 4.572442 0.3585173 4.556097
v 4.582667 0.7770346 3.119056
v 4.572442 0.7770346 4.556097
v 4.582667 1.195552 3.119056
v 4.572442 1.195552 4.556097
v 4.880364 1.614069 3.119056
v 4.870139 1.614069 4.556097
v 4.551992 1.195552 7.430181
v 4.541767 1.195552 8.867222
v 4.562217 1.195552 5.993139
v 4.859914 1.614069 5.993139
v 4.849689 1.614069 7.430181
v 4.839464 1.614069 8.867222

vt 6.126549 -5.816788
vt 5.829076 -5.814965
vt 5.263532 -4.46302
vt 6.102691 -4.365954
vt 5.531602 -5.813142
vt 4.424374 -4.560086
vt 3.317145 -3.30703
vt 4.697989 -3.111076
vt 6.078833 -2.915121
vt 4.936656 -5.809497
vt 4.671873 -5.792843
vt 4.548123 -5.176465
vt 5.234129 -5.811319
vt 4.407089 -5.776189
vt 3.862117 -4.54161
vt 4.142305 -5.759536
vt 3.380017 -5.142907
vt 3.877522 -5.742882
vt 2.897916 -5.744203
vt 1.918311 -5.745524
vt 2.617728 -4.526277
vt 1.293526 -4.418701
vt 1.648347 -3.090557
vt 0.9387053 -5.746845
vt -0.04090023 -5.748166
vt -0.03067517 -4.311125
vt -0.02045012 -2.874083
vt 1.110307 -1.547581
vt 2.230839 -1.658121
vt -0.01022506 -1.437042
vt 0 0
vt 0.5722671 -0.004606247
vt 1.144534 -0.009212494
vt 4.160092 -0.01593971
vt 3.738619 -1.661485
vt 2.72771 -0.8376519
vt 3.22458 -0.01718235
vt 1.716801 -0.01381874
vt 2.289068 -0.01842499
vt 5.095604 -0.01469707
vt 4.896797 -1.562886
vt 6.031116 -0.01345444
vt 6.054975 -1.464288
vt 1.144571 1.45872E-10
vt 1.144571 0.4903015
vt 1.716857 0.4903015
vt 1.716857 2.842702E-10
vt 1.144571 0.980603
vt 1.716857 0.980603
vt 2.289143 0.980603
vt 2.289143 0.4903015
vt 2.289143 2.91744E-10
vt 0 0.4903015
vt 0.5722857 0.4903015
vt 0.5722857 7.2936E-11
vt 0 0.980603
vt 0.5722857 0.980603
vt 0 1.470904
vt 0.5722857 1.470904
vt -0.002489977 2.003417
vt 0.5697956 2.003417
vt 1.142081 2.003417
vt 1.144571 1.470904
vt 1.716857 1.470904
vt 1.714367 2.003417
vt 2.286653 2.003417
vt 2.289143 1.470904
vt 3.230045 1.91133
vt 4.465921 1.911794
vt 4.465921 1.356122
vt 3.230045 1.355659
vt 5.91695 1.911787
vt 5.91695 1.356116
vt 5.91695 0.8004442
vt 4.465921 0.8004511
vt 3.014891 0.800458
vt 0.1128322 1.911814
vt 2.410223 1.909956
vt 2.410223 1.354285
vt 0.1128322 1.356143
vt 1.563862 0.8004649
vt 0.1128322 0.8004717
vt 0.1192958 3.075221
vt 2.416686 3.073362
vt 2.410223 2.465627
vt 0.1128322 2.467486
vt 3.230045 2.467001
vt 4.465921 2.467465
vt 3.236509 3.074736
vt 4.472384 3.0752
vt 5.923414 3.075193
vt 5.91695 2.467458
vt -4.972159 0.6707849
vt -5.269637 0.6707848
vt -5.269637 1.284913
vt -4.972159 1.284913
vt -5.567116 0.6707849
vt -5.567117 1.284913
vt -5.567117 1.899042
vt -5.269638 1.899042
vt -4.972159 1.899042
vt -5.864595 1.284913
vt -5.864595 1.899042
vt -5.864595 0.6707849
vt -6.162074 0.6707849
vt -6.162074 1.284913
vt -6.162074 1.899042
vt -5.864595 2.51317
vt -5.567117 2.51317
vt -6.162074 2.51317
vt -6.164008 3.163934
vt -5.866529 3.163934
vt -5.56905 3.163934
vt -4.974092 3.163934
vt -4.972159 2.51317
vt -5.269638 2.51317
vt -5.271571 3.163934
vt 0.04865172 0.9279718
vt -0.9309548 0.9279719
vt -0.9309548 1.275766
vt 0.04865172 1.275766
vt -1.910561 0.9279718
vt -1.910561 1.275766
vt -1.910561 1.62356
vt -0.9309548 1.62356
vt 0.04865172 1.62356
vt -2.890167 0.9279718
vt -2.890167 1.275766
vt -3.869774 0.9279718
vt -3.869774 1.275766
vt -3.869774 1.62356
vt -2.890167 1.62356
vt -2.890167 2.393413
vt -1.910561 2.393413
vt -3.869774 2.393413
vt -3.869289 2.799277
vt -2.889683 2.799277
vt -1.910076 2.799277
vt -0.9309549 2.393413
vt 0.04865172 2.393413
vt -0.9304698 2.799277
vt 0.04913678 2.799277
vt -1.437078 2.101272E-10
vt -1.437078 0.4137686
vt 0 0.4137686
vt -2.874156 4.202544E-10
vt -2.874156 0.4137686
vt -2.874156 0.8275373
vt -1.437078 0.8275373
vt 0 0.8275373
vt -4.311234 3.755614E-10
vt -5.748312 8.405088E-10
vt -5.748312 0.4137686
vt -4.311234 0.4137686
vt -5.748312 0.8275373
vt -4.311234 0.8275373
vt -5.748312 1.241306
vt -4.311234 1.241306
vt -5.75043 1.699791
vt -4.313352 1.699791
vt -1.437078 1.241306
vt 0 1.241306
vt -2.874156 1.241306
vt -2.876274 1.699791
vt -1.439196 1.699792
vt -0.002118163 1.699791

vn 0 1 0
vn 0.00804886 0 -0.9999676
vn 0.00682532 0.5300186 -0.8479586
vn 0.9998137 0 -0.01930451
vn 0.9998648 0 -0.01644217
vn 0.9998255 -0.003704648 -0.01787307
vn 0.9997863 -0.007409296 -0.01930398
vn 0.9999461 0 -0.01038466
vn 0.9992291 -0.025102 -0.02275649
vn 0.9998449 -0.006310741 -0.01644184
vn 0.9986132 -0.04389326 -0.02907113
vn 0.9995568 -0.02481768 -0.0164371
vn 0.9997514 -0.01240884 -0.01341088
vn 0.8193301 0.5732589 -0.008508913
vn 0.8192573 0.5732079 -0.01581826
vn 0.8192855 0.5732276 -0.01347265
vn -0.006127198 3.855914E-07 0.9999812
vn -0.005456562 0.454662 0.8906474
vn 0.001348336 0 0.9999991
vn 0.0009436214 0.7142983 0.6998407
vn -0.9999747 0 -0.007115173
vn -0.8148642 0.579623 -0.005798047

usemtl Lit
f 4/4/1 3/3/1 2/2/1 1/1/1
f 3/3/1 6/6/1 5/5/1 2/2/1
f 8/8/1 7/7/1 6/6/1 3/3/1
f 9/9/1 8/8/1 3/3/1 4/4/1
f 13/13/1 12/12/1 11/11/1 10/10/1
f 12/12/1 15/15/1 14/14/1 11/11/1
f 6/6/1 7/7/1 15/15/1 12/12/1
f 5/5/1 6/6/1 12/12/1 13/13/1
f 15/15/1 17/17/1 16/16/1 14/14/1
f 17/17/1 19/19/1 18/18/1 16/16/1
f 21/21/1 20/20/1 19/19/1 17/17/1
f 7/7/1 21/21/1 17/17/1 15/15/1
f 23/23/1 22/22/1 21/21/1 7/7/1
f 22/22/1 24/24/1 20/20/1 21/21/1
f 26/26/1 25/25/1 24/24/1 22/22/1
f 27/27/1 26/26/1 22/22/1 23/23/1
f 29/29/1 28/28/1 23/23/1 7/7/1
f 28/28/1 30/30/1 27/27/1 23/23/1
f 32/32/1 31/31/1 30/30/1 28/28/1
f 33/33/1 32/32/1 28/28/1 29/29/1
f 37/37/1 36/36/1 35/35/1 34/34/1
f 36/36/1 29/29/1 7/7/1 35/35/1
f 38/38/1 33/33/1 29/29/1 36/36/1
f 39/39/1 38/38/1 36/36/1 37/37/1
f 34/34/1 35/35/1 41/41/1 40/40/1
f 41/41/1 43/43/1 42/42/1 40/40/1
f 8/8/1 9/9/1 43/43/1 41/41/1
f 35/35/1 7/7/1 8/8/1 41/41/1
f 38/47/2 45/46/2 44/45/2 33/44/2
f 45/46/2 47/49/2 46/48/2 44/45/2
f 49/51/2 48/50/2 47/49/2 45/46/2
f 39/52/2 49/51/2 45/46/2 38/47/2
f 32/55/2 51/54/2 50/53/2 31/31/2
f 51/54/2 53/57/2 52/56/2 50/53/2
f 44/45/2 46/48/2 53/57/2 51/54/2
f 33/44/2 44/45/2 51/54/2 32/55/2
f 53/57/2 55/59/2 54/58/2 52/56/2
f 55/59/3 57/61/3 56/60/3 54/58/3
f 59/63/3 58/62/3 57/61/3 55/59/3
f 46/48/2 59/63/2 55/59/2 53/57/2
f 47/49/2 60/64/2 59/63/2 46/48/2
f 60/64/3 61/65/3 58/62/3 59/63/3
f 63/67/3 62/66/3 61/65/3 60/64/3
f 48/50/2 63/67/2 60/64/2 47/49/2
f 66/70/4 65/69/4 64/68/4 67/71/4
f 69/73/5 68/72/5 65/69/5 66/70/5
f 1/74/5 69/73/5 66/70/5 4/75/5
f 4/75/5 66/70/6 67/71/7 9/76/6
f 73/80/8 72/79/8 71/78/8 70/77/8
f 9/76/10 67/71/9 72/79/11 43/81/9
f 43/81/12 72/79/13 73/80/8 42/82/13
f 77/86/14 76/85/14 75/84/14 74/83/14
f 77/86/8 70/77/8 71/78/8 76/85/8
f 78/87/4 64/68/4 65/69/4 79/88/4
f 78/87/15 79/88/15 81/90/15 80/89/15
f 83/92/16 82/91/16 81/90/16 79/88/16
f 68/72/5 83/92/5 79/88/5 65/69/5
f 85/96/17 84/95/17 13/94/17 10/93/17
f 86/98/17 5/97/17 13/94/17 84/95/17
f 87/99/17 86/98/17 84/95/17 88/100/17
f 88/100/17 84/95/17 85/96/17 89/101/17
f 87/99/17 91/103/17 90/102/17 86/98/17
f 90/102/17 2/104/17 5/97/17 86/98/17
f 90/102/17 92/106/17 1/105/17 2/104/17
f 91/103/17 93/107/17 92/106/17 90/102/17
f 95/109/17 94/108/17 91/103/17 87/99/17
f 94/108/17 96/110/17 93/107/17 91/103/17
f 98/112/18 97/111/18 96/110/18 94/108/18
f 99/113/18 98/112/18 94/108/18 95/109/18
f 103/117/18 102/116/18 101/115/18 100/114/18
f 101/115/17 102/116/17 88/100/17 89/101/17
f 102/116/17 95/109/17 87/99/17 88/100/17
f 99/113/18 95/109/18 102/116/18 103/117/18
f 105/121/19 104/120/19 24/119/19 25/118/19
f 104/120/19 106/123/19 20/122/19 24/119/19
f 108/125/19 107/124/19 106/123/19 104/120/19
f 109/126/19 108/125/19 104/120/19 105/121/19
f 106/123/19 110/128/19 19/127/19 20/122/19
f 110/128/19 111/130/19 18/129/19 19/127/19
f 113/132/19 112/131/19 111/130/19 110/128/19
f 107/124/19 113/132/19 110/128/19 106/123/19
f 115/134/19 114/133/19 113/132/19 107/124/19
f 114/133/19 116/135/19 112/131/19 113/132/19
f 118/137/20 117/136/20 116/135/20 114/133/20
f 119/138/20 118/137/20 114/133/20 115/134/20
f 121/140/19 120/139/19 108/125/19 109/126/19
f 123/142/20 122/141/20 120/139/20 121/140/20
f 125/145/21 124/144/21 30/143/21 31/31/21
f 124/144/21 126/147/21 27/146/21 30/143/21
f 128/149/21 127/148/21 126/147/21 124/144/21
f 129/150/21 128/149/21 124/144/21 125/145/21
f 131/154/21 130/153/21 25/152/21 26/151/21
f 133/156/21 132/155/21 130/153/21 131/154/21
f 135/158/21 134/157/21 132/155/21 133/156/21
f 137/160/22 136/159/22 134/157/22 135/158/22
f 139/162/21 138/161/21 128/149/21 129/150/21
f 138/161/21 140/163/21 127/148/21 128/149/21
f 142/165/22 141/164/22 140/163/22 138/161/22
f 143/166/22 142/165/22 138/161/22 139/162/22

