# ProBuilder 5.1.1
# https://unity3d.com/unity/features/worldbuilding/probuilder
# 15/11/2023 13:35:23

mtllib ./8.mtl
o 8

g 8
v -1.459814 -3.374715 1.782674
v -1.465441 -3.374715 -3.650666
v 0.9175322 -3.374715 -3.688366
v 0.9421663 -3.374715 1.784549
v 0.9175322 -2.122843 -3.688366
v 0.9421663 -2.122843 1.784549
v -1.465441 -2.122843 -3.650666
v -1.459814 -2.122843 1.782674
v 0.9175322 0 -3.688366
v 0.9421663 0 1.784549
v -1.465441 0 -3.650666
v -1.459814 0 1.782674

vt 0 0
vt -0.005627513 -5.43334
vt 2.377346 -5.47104
vt 2.40198 0.001874924
vt -2.377346 -5.47104
vt -2.40198 0.001874924
vt 0.005627513 -5.43334
vt 5.460284 0
vt -0.01268634 0
vt 5.460284 -3.374715
vt -0.01268634 -3.374715
vt -0.08032139 0
vt -2.463593 0
vt -0.08032139 -3.374715
vt -2.463593 -3.374715
vt 2.401981 0
vt 2.401981 -3.374715
vt 0 -3.374715
vt -5.433343 0
vt -5.433343 -3.374715
vt -5.460285 0
vt 0.01268634 0
vt -5.460285 -2.122843
vt 0.01268634 -2.122843
vt 0.08032139 0
vt 2.463593 0
vt 0.08032139 -2.122843
vt 2.463593 -2.122843
vt -2.401981 0
vt -2.401981 -2.122843
vt 0 -2.122843
vt 5.433343 0
vt 5.433343 -2.122843

vn 0 -1 0
vn 0 1 0
vn 0.9999899 0 -0.004501052
vn -0.01581867 0 -0.9998749
vn -0.000780574 0 0.9999997
vn -0.9999995 0 0.001035737
vn -0.9999899 0 0.004501052
vn 0.01581867 0 0.9998749
vn 0.000780574 0 -0.9999997
vn 0.9999995 0 -0.001035737

usemtl Lit
f 2/2/1 3/3/1 4/4/1 1/1/1
f 7/7/2 8/1/2 6/6/2 5/5/2
f 9/8/3 10/9/3 4/11/3 3/10/3
f 11/12/4 9/13/4 3/15/4 2/14/4
f 10/16/5 12/1/5 1/18/5 4/17/5
f 12/1/6 11/19/6 2/20/6 1/18/6
f 5/23/7 6/24/7 10/22/7 9/21/7
f 7/27/8 5/28/8 9/26/8 11/25/8
f 6/30/9 8/31/9 12/1/9 10/29/9
f 8/31/10 7/33/10 11/32/10 12/1/10

