# ProBuilder 5.1.1
# https://unity3d.com/unity/features/worldbuilding/probuilder
# 15/11/2023 13:32:33

mtllib ./9.mtl
o 9

g 9
v -3.196122 0.1756642 -1.552849
v -3.894767 0.1756642 -1.469637
v -4.708491 0.1756642 -2.255055
v -5.668756 0.1756642 -2.132409
v -6.260158 0.1756646 -1.103707
v -6.988515 0.1756642 -1.191396
v -7.064798 0.1756642 -2.250488
v -7.828271 0.1756646 -2.2702
v -7.866158 0.1756646 -1.72388
v -7.416954 0.1756642 -0.8034105
v -5.908105 0.1756642 -0.6943049
v -5.244115 0.1756642 -1.453676
v -4.552421 0.1756642 -1.316814
v -3.871403 0.1756637 -0.7468414
v -2.679783 0.1756642 -0.7684498
v -7.866158 4.768372E-07 -1.72388
v -7.828271 4.768372E-07 -2.2702
v -7.064798 0 -2.250488
v -6.988515 0 -1.191396
v -7.416954 0 -0.8034105
v -6.260158 4.768372E-07 -1.103707
v -5.908105 0 -0.6943049
v -5.244115 0 -1.453676
v -5.668756 0 -2.132409
v -4.708491 0 -2.255055
v -4.552421 0 -1.316814
v -3.894767 0 -1.469637
v -3.871403 -4.768372E-07 -0.7468414
v -3.196122 0 -1.552849
v -2.679783 0 -0.7684498

vt 8.294761E-17 -1.245016E-16
vt 0.6986451 0.08321214
vt 1.512369 -0.7022064
vt 2.472633 -0.57956
vt 3.064035 0.449142
vt 3.792393 0.3614526
vt 3.868676 -0.697639
vt 4.632149 -0.717351
vt 4.670036 -0.1710308
vt 4.220832 0.7494385
vt 2.711983 0.8585441
vt 2.047993 0.09917331
vt 1.356299 0.2360351
vt 0.6752808 0.8060076
vt -0.5163388 0.7843993
vt -4.670036 -0.1710308
vt -4.632149 -0.717351
vt -3.868676 -0.697639
vt -3.792393 0.3614526
vt -4.220832 0.7494385
vt -3.064035 0.449142
vt -2.711983 0.8585441
vt -2.047993 0.09917331
vt -2.472633 -0.57956
vt -1.512369 -0.7022064
vt -1.356299 0.2360351
vt -0.6986451 0.08321214
vt -0.6752808 0.8060076
vt 0.5163388 0.7843993
vt 0.1524723 4.494262E-07
vt -0.39516 4.494262E-07
vt 0.1524723 0.1756646
vt -0.39516 0.1756646
vt 4.649121 4.768372E-07
vt 3.885394 0
vt 4.649121 0.1756646
vt 3.885394 0.1756642
vt 0.9737665 0
vt -0.08806881 0
vt 0.9737665 0.1756642
vt -0.08806881 0.1756642
vt -1.177646 0
vt -2.201877 4.768372E-07
vt -1.177646 0.1756642
vt -2.201877 0.1756646
vt 3.721999 0
vt 2.988382 4.768372E-07
vt 3.721999 0.1756642
vt 2.988382 0.1756646
vt -2.643001 0
vt -4.155789 0
vt -2.643001 0.1756642
vt -4.155789 0.1756642
vt -1.422742 -8.244141E-08
vt -2.431468 -8.244141E-08
vt -1.422742 0.1756641
vt -2.431468 0.1756641
vt 1.916517 4.768372E-07
vt 0.7299316 0
vt 1.916517 0.1756646
vt 0.7299316 0.1756642
vt 2.379283 0
vt 1.411218 0
vt 2.379283 0.1756642
vt 1.411218 0.1756642
vt -1.284689 4.117489E-08
vt -1.989794 4.117489E-08
vt -1.284689 0.1756642
vt -1.989794 0.1756642
vt 1.575834 0
vt 0.4448928 0
vt 1.575834 0.1756642
vt 0.4448928 0.1756642
vt -0.0005362682 -4.768372E-07
vt -0.8885984 0
vt -0.0005362682 0.1756637
vt -0.8885984 0.1756642
vt 0.7035832 -5.403266E-17
vt 0.7035832 0.1756642
vt -1.126141E-08 0.1756642
vt -0.9390889 8.132924E-16
vt -0.9390889 0.1756642
vt 0.5020323 0
vt -0.6897833 -4.768372E-07
vt 0.5020323 0.1756642
vt -0.6897833 0.1756637

vn -1.585825E-07 1 4.587419E-07
vn -5.056444E-07 -1 -1.205263E-07
vn -0.9976039 5.868737E-09 -0.06918432
vn 0.02581023 0 -0.9996668
vn 0.9974161 0 -0.07184114
vn -0.8986934 0 0.4385775
vn 0.1195302 0 -0.9928306
vn -0.07212218 0 0.9973958
vn 0.7528024 -5.583745E-08 0.6582466
vn -0.8669433 0 -0.4984068
vn -0.1266922 0 -0.9919421
vn -0.1941015 -8.321426E-08 0.9809815
vn 0.6944821 0 -0.71951
vn -0.6418161 0 0.7668586
vn -0.1182691 8.423221E-08 -0.9929816
vn 0.8352769 -1.596826E-08 -0.5498295
vn 0.01813062 0 0.9998357

usemtl Lit
f 7/7/1 8/8/1 9/9/1
f 6/6/1 7/7/1 9/9/1
f 10/10/1 6/6/1 9/9/1
f 10/10/1 5/5/1 6/6/1
f 10/10/1 11/11/1 5/5/1
f 11/11/1 12/12/1 5/5/1
f 5/5/1 12/12/1 4/4/1
f 12/12/1 3/3/1 4/4/1
f 12/12/1 13/13/1 3/3/1
f 13/13/1 2/2/1 3/3/1
f 14/14/1 2/2/1 13/13/1
f 14/14/1 1/1/1 2/2/1
f 15/15/1 1/1/1 14/14/1
f 28/28/2 29/1/2 30/29/2
f 27/27/2 29/1/2 28/28/2
f 26/26/2 27/27/2 28/28/2
f 25/25/2 27/27/2 26/26/2
f 25/25/2 26/26/2 23/23/2
f 24/24/2 25/25/2 23/23/2
f 24/24/2 23/23/2 21/21/2
f 21/21/2 23/23/2 22/22/2
f 21/21/2 22/22/2 20/20/2
f 19/19/2 21/21/2 20/20/2
f 16/16/2 19/19/2 20/20/2
f 16/16/2 18/18/2 19/19/2
f 16/16/2 17/17/2 18/18/2
f 8/33/3 17/31/3 16/30/3
f 16/30/3 9/32/3 8/33/3
f 7/37/4 18/35/4 17/34/4
f 17/34/4 8/36/4 7/37/4
f 6/41/5 19/39/5 18/38/5
f 18/38/5 7/40/5 6/41/5
f 9/45/6 16/43/6 20/42/6
f 20/42/6 10/44/6 9/45/6
f 5/49/7 21/47/7 19/46/7
f 19/46/7 6/48/7 5/49/7
f 10/53/8 20/51/8 22/50/8
f 22/50/8 11/52/8 10/53/8
f 11/57/9 22/55/9 23/54/9
f 23/54/9 12/56/9 11/57/9
f 4/61/10 24/59/10 21/58/10
f 21/58/10 5/60/10 4/61/10
f 3/65/11 25/63/11 24/62/11
f 24/62/11 4/64/11 3/65/11
f 12/69/12 23/67/12 26/66/12
f 26/66/12 13/68/12 12/69/12
f 2/73/13 27/71/13 25/70/13
f 25/70/13 3/72/13 2/73/13
f 13/77/14 26/75/14 28/74/14
f 28/74/14 14/76/14 13/77/14
f 1/80/15 29/1/15 27/78/15
f 27/78/15 2/79/15 1/80/15
f 15/82/16 30/81/16 29/1/16
f 29/1/16 1/80/16 15/82/16
f 14/86/17 28/84/17 30/83/17
f 30/83/17 15/85/17 14/86/17

